<svg width="41" height="36" viewBox="0 0 41 36" fill="none" xmlns="http://www.w3.org/2000/svg">
<path opacity="0.9" fill-rule="evenodd" clip-rule="evenodd" d="M11.9869 0.986328V1.3923L11.5706 1.80702C9.51523 3.90561 7.93498 6.38768 6.82855 9.2545C5.64836 12.3124 5.05826 15.4641 5.05826 18.7094C5.05826 21.871 5.6171 24.9227 6.73603 27.8669C7.85496 30.81 9.45147 33.3632 11.5256 35.5255V35.9627H7.18236L6.8148 35.5892C4.9995 33.6943 3.57677 31.3209 2.54785 28.4753C1.44893 25.4373 0.900085 22.182 0.900085 18.7094C0.900085 15.1518 1.47518 11.8078 2.62412 8.67739C3.7743 5.547 5.44833 2.98373 7.64493 0.986328H11.9869ZM34.1617 0.986328L34.5681 1.36732C36.5659 3.30601 38.1036 5.74312 39.1813 8.67739C40.3315 11.8078 40.9066 15.1518 40.9066 18.7094C40.9066 22.182 40.3565 25.4373 39.2588 28.4753C38.1599 31.512 36.6146 34.0078 34.6231 35.9627H30.2811V35.5255L30.6887 35.0883C32.5652 33.021 34.0255 30.6138 35.0694 27.8669C36.1896 24.9227 36.7484 21.871 36.7484 18.7094C36.7484 15.4641 36.1583 12.3124 34.9781 9.2545C33.7967 6.19656 32.0777 3.57583 29.8198 1.3923V0.986328H34.1617ZM16.2988 8.03782V16.9918H25.5066V8.03782H29.8198V29.8156H25.5066V20.5494H16.2988V29.8156H11.9869V8.03782H16.2988Z" fill="white"/>
</svg>
